Coordinates
version=1
nRows=8
nColumns=63
inDegrees=yes

Units are S.I. units (second, meters, Newtons, ...)
If the header above contains a line with 'inDegrees', this indicates whether rotational values are in degrees (yes) or radians (no).

endheader
time	pelvis_tilt	pelvis_list	pelvis_rotation	pelvis_tx	pelvis_ty	pelvis_tz	hip_flexion_r	hip_adduction_r	hip_rotation_r	knee_angle_r	knee_angle_r_beta	ankle_angle_r	subtalar_angle_r	mtp_angle_r	hip_flexion_l	hip_adduction_l	hip_rotation_l	knee_angle_l	knee_angle_l_beta	ankle_angle_l	subtalar_angle_l	mtp_angle_l	L5_S1_Flex_Ext	L5_S1_Lat_Bending	L5_S1_axial_rotation	L4_L5_Flex_Ext	L4_L5_Lat_Bending	L4_L5_axial_rotation	L3_L4_Flex_Ext	L3_L4_Lat_Bending	L3_L4_axial_rotation	L2_L3_Flex_Ext	L2_L3_Lat_Bending	L2_L3_axial_rotation	L1_L2_Flex_Ext	L1_L2_Lat_Bending	L1_L2_axial_rotation	L1_T12_Flex_Ext	L1_T12_Lat_Bending	L1_T12_axial_rotation	Abs_r3	Abs_r2	Abs_r1	Abs_t1	Abs_t2	neck_flexion	neck_bending	neck_rotation	arm_flex_r	arm_add_r	arm_rot_r	elbow_flex_r	pro_sup_r	wrist_flex_r	wrist_dev_r	arm_flex_l	arm_add_l	arm_rot_l	elbow_flex_l	pro_sup_l	wrist_flex_l	wrist_dev_l
3.600000	7.750355	-7.826163	93.044683	0.087291	0.582885	0.815095	0.169176	6.030104	8.801804	1.947523	0.033991	14.576339	-9.075408	0.000000	-0.146486	-7.571856	0.127170	1.555625	0.027151	21.327310	1.336984	0.000000	0.140210	0.955665	0.615168	0.260384	1.271035	0.653616	0.230351	2.323605	0.653616	0.160246	2.323605	0.538272	0.130199	1.948793	0.499824	0.080116	1.480326	0.461376	1.001506	10.810678	3.421378	0.000000	0.000000	28.175574	-8.422798	-3.417250	18.098242	-10.659587	125.876088	11.862285	22.709591	0.743802	-4.129582	17.562780	1.340745	169.287164	-2.225283	-1.166139	-25.188694	-24.249601
3.616667	7.845787	-7.656322	92.656200	0.087160	0.583324	0.815405	0.179837	6.107356	8.207372	2.257868	0.039407	15.048217	-7.615664	0.000000	-0.372994	-7.636639	-0.521238	1.447715	0.025267	22.007565	1.624130	0.000000	0.123782	0.967059	0.739510	0.229875	1.286188	0.785729	0.203361	2.351306	0.785729	0.141470	2.351306	0.647071	0.114944	1.972026	0.600852	0.070729	1.497974	0.554632	0.884162	10.939561	4.112933	0.000000	0.000000	28.158745	-8.598888	-3.922685	18.660804	-10.615558	123.143556	13.840244	24.412511	1.149593	-3.755741	18.636281	2.560515	167.796100	-2.497028	-2.607679	-19.568791	-25.144190
3.633333	7.872138	-7.515573	92.277625	0.087163	0.583596	0.815475	0.185881	6.123544	7.671008	2.551137	0.044526	15.538527	-6.260175	0.000000	-0.591953	-7.637930	-1.071455	1.336862	0.023333	22.628852	1.824497	0.000000	0.112306	0.967141	0.844221	0.208564	1.286297	0.896985	0.184508	2.351505	0.896985	0.128355	2.351505	0.738693	0.104288	1.972193	0.685930	0.064172	1.498101	0.633166	0.802194	10.940487	4.695304	0.000000	0.000000	28.147368	-8.679177	-4.425193	19.144926	-10.560368	119.435032	16.134461	26.108814	1.705223	-3.324215	19.338465	3.489034	163.465193	-1.583978	-1.677079	-13.773151	-24.374386
3.650000	7.821246	-7.414176	91.894929	0.087341	0.583673	0.815321	0.190406	6.069740	7.272085	2.813139	0.049099	16.028700	-5.096699	0.000000	-0.797239	-7.568570	-1.508308	1.218927	0.021274	23.185175	1.911362	0.000000	0.106772	0.954699	0.934172	0.198286	1.269750	0.992558	0.175415	2.321255	0.992558	0.122029	2.321255	0.817401	0.099148	1.946822	0.759015	0.061009	1.478829	0.700629	0.762660	10.799746	5.195585	0.000000	0.000000	28.142351	-8.665717	-4.929853	19.464223	-10.537096	114.520206	18.793072	27.633365	2.391193	-2.730409	19.718716	4.070144	156.347045	0.493233	1.044731	-8.334270	-22.629284
3.666667	7.692833	-7.348358	91.518467	0.087676	0.583586	0.814983	0.186695	5.945160	7.016941	3.034501	0.052962	16.464325	-4.170766	0.000000	-0.983744	-7.426978	-1.836755	1.105684	0.019298	23.632091	1.890182	0.000000	0.106212	0.929945	1.005508	0.197246	1.236827	1.068353	0.174495	2.261068	1.068353	0.121389	2.261068	0.879820	0.098628	1.896344	0.816976	0.060689	1.440485	0.754131	0.758660	10.519725	5.592336	0.000000	0.000000	28.143027	-8.536034	-5.394492	19.639550	-10.558343	108.598066	21.758425	29.055952	3.092449	-1.966269	19.825889	4.310470	146.808531	3.590071	5.416603	-3.202167	-20.105097
3.683333	7.492915	-7.319002	91.136666	0.088177	0.583343	0.814511	0.175655	5.755704	6.946820	3.205545	0.055947	16.808927	-3.529145	0.000000	-1.148318	-7.218136	-2.059420	0.999266	0.017440	23.942341	1.729092	0.000000	0.110319	0.893419	1.066370	0.204873	1.188247	1.133018	0.181243	2.172259	1.133018	0.126083	2.172259	0.933073	0.102442	1.821860	0.866425	0.063036	1.383906	0.799777	0.787995	10.106535	5.930828	0.000000	0.000000	28.149431	-8.303615	-5.860779	19.618766	-10.649336	101.652541	25.031658	30.430099	3.553880	-0.846008	19.731579	4.235455	135.234457	7.618848	11.349220	1.524488	-16.945160
3.700000	7.236964	-7.331231	90.778326	0.088803	0.582964	0.813981	0.168785	5.515225	7.048666	3.325294	0.058037	17.030102	-3.176118	0.000000	-1.270313	-6.959906	-2.183156	0.912275	0.015922	24.098325	1.488904	0.000000	0.119353	0.847232	1.106062	0.221651	1.126819	1.175191	0.196086	2.059960	1.175191	0.136409	2.059960	0.967805	0.110832	1.727676	0.898676	0.068199	1.312363	0.829547	0.852529	9.584060	6.151587	0.000000	0.000000	28.160639	-7.944659	-6.264758	19.476241	-10.815994	94.073540	28.509533	31.810225	3.755183	0.504189	19.452692	3.847994	122.065594	12.422897	18.641091	5.727400	-13.411208
3.716667	6.940375	-7.382631	90.417235	0.089577	0.582477	0.813437	0.166854	5.239199	7.330448	3.385020	0.059080	17.130638	-3.092453	0.000000	-1.351784	-6.668934	-2.362577	0.849843	0.014833	24.144673	1.350433	0.000000	0.132522	0.793374	1.129831	0.246106	1.055187	1.200445	0.217720	1.929009	1.200445	0.151459	1.929009	0.988602	0.123059	1.617848	0.917987	0.075723	1.228936	0.847373	0.946588	8.974804	6.283779	0.000000	0.000000	28.175837	-7.470367	-6.626893	19.282927	-11.015834	86.729645	32.064752	32.811051	3.575133	2.228392	18.945832	3.242169	108.842977	17.580242	26.289299	9.486542	-9.321872
